<?xml version="1.0" encoding="utf-8"?>
<!-- Generator: Adobe Illustrator 26.1.0, SVG Export Plug-In . SVG Version: 6.00 Build 0)  -->
<svg version="1.1" id="Layer_1" xmlns="http://www.w3.org/2000/svg" xmlns:xlink="http://www.w3.org/1999/xlink" x="0px" y="0px"
	 viewBox="0 0 4565.6 3141.1" style="enable-background:new 0 0 4565.6 3141.1;" xml:space="preserve">
<style type="text/css">
	.st0{fill:#26130A;}
	.st1{fill:#A99488;}
	.st2{fill:#726658;}
	.st3{fill:#A93F3F;}
	.st4{fill:#594A42;}
	.st5{fill:#FFFFFF;}
	.st6{fill:#ABBEC3;}
	.st7{fill:#604A30;}
	.st8{fill:#967D6C;}
</style>
<g>
	<g>
		<g>
			<path class="st0" d="M1156.4,1152.9c-128.7,1141-78.9,1816.5-78.9,1816.5h1193.5V0C2271.1,0,1288.7-19.4,1156.4,1152.9z"/>
			<path class="st0" d="M3385.7,1152.9C3253.5-19.4,2271.1,0,2271.1,0v2969.3h1193.5C3464.6,2969.3,3514.4,2293.8,3385.7,1152.9z"/>
		</g>
		<g>
			<path class="st1" d="M1192.5,1160c-124.1,1116.5-76.1,1777.6-76.1,1777.6h1151.2V31.8C2267.7,31.8,1320,12.8,1192.5,1160z"/>
			<path class="st1" d="M3342.8,1160C3215.3,12.8,2267.7,31.8,2267.7,31.8v2905.7h1151.2C3418.9,2937.5,3467,2276.5,3342.8,1160z"/>
		</g>
	</g>
	<g>
		<path class="st2" d="M1919.6,979.5c0,0,185.1-97.1,354.4-97.1c169.4,0,341.8,97.1,341.8,97.1s-224.1-57.7-341.8-57.4
			C2156.2,922.5,1919.6,979.5,1919.6,979.5z"/>
		<path class="st3" d="M2275.5,1546.3c-5.2,0-10.4,0-15.6,0c-194.6,0-401.2,0-595.2,0c0,0,225.8,89.9,336.8,203.6
			c77.9,79.8,140.7,237.5,266,237.3c0,0,0,0,0,0c0.1,0,0.1,0,0.2,0c0.1,0,0.1,0,0.2,0c0,0,0,0,0,0c125.3,0.2,188.1-157.5,266-237.3
			c111-113.7,336.8-203.6,336.8-203.6C2676.7,1546.3,2470.1,1546.3,2275.5,1546.3z M2267.7,1957.9c0,0.8,0,1.6,0,2.4
			C2267.7,1959.5,2267.7,1958.7,2267.7,1957.9z"/>
		<g>
			<path class="st4" d="M1907.2,709c1.8,11.9,18.9,138.5-78,232.2c-100.1,96.7-231.3,70.8-241.7,68.5
				c48.3-25.3,110.4-63.9,173.4-121.8C1830.8,823.8,1877.3,758.6,1907.2,709z"/>
			<path class="st4" d="M2628.1,709c-1.8,11.9-18.9,138.5,78,232.2c100.1,96.7,231.3,70.8,241.7,68.5
				c-48.3-25.3-110.4-63.9-173.4-121.8C2704.6,823.8,2658,758.6,2628.1,709z"/>
		</g>
		<path class="st2" d="M2128.3,1978.6c0,0,74.1,97.1,141.9,97.1c67.8,0,136.8-97.1,136.8-97.1s-89.7,57.7-136.8,57.4
			C2223.1,2035.6,2128.3,1978.6,2128.3,1978.6z"/>
		<g>
			<path class="st5" d="M2384.6,1784.2h-233.8c-32.1,0-58.2-26-58.2-58.2v-197.6c0-32.1,26-58.2,58.2-58.2h233.8
				c32.1,0,58.2,26,58.2,58.2V1726C2442.7,1758.1,2416.7,1784.2,2384.6,1784.2z"/>
			<path class="st6" d="M2262.4,1733.8c-2.7-46.1-5.4-174.8-8-225.3h26.6c-2.7,50.5-5.4,179.2-8,225.3
				C2272.6,1740.4,2262.8,1740.4,2262.4,1733.8z"/>
		</g>
		<g>
			<g>
				<path class="st2" d="M2267.5,1134.7v285.4c0,0,0.3,228.3-184.3,228.3c-201.8,0-542.9,0-523-187.3c3.9-36.8,21.4-70.8,48.3-96.2
					c100.6-95.2,451.6-412.7,659-412.7c207.3,0,558.6,317.5,659.2,412.7c26.9,25.4,44.5,59.5,48.4,96.3
					c19.8,187.3-321.2,187.3-523,187.3c-184.6,0-184.3-228.3-184.3-228.3v-285.4"/>
			</g>
			<path class="st4" d="M2954.1,1391.7l-0.2,0.1c-8.3,3.8-12,13.4-8.7,21.9c18.6,47.2,18.1,85.1-1.4,115.5
				c-65.5,102.1-332.4,102.1-491.8,102.1c-68.6,0-117.4-34.5-145.1-102.6c-21.7-53.4-22-108-22-108.6v-285.4h-0.3h-33.9h-0.3v285.5
				c0,1.1-0.6,109.4-61.4,170.4c-27.1,27.1-62.6,40.8-105.7,40.8c-159.5,0-426.3,0-491.8-102.1c-19.5-30.4-20-68.3-1.4-115.5
				c3.3-8.5-0.4-18.1-8.7-21.9l-0.2-0.1c-8.9-4.1-19.4,0.2-23,9.4c-22.6,57.6-21.1,106.8,4.4,146.6
				c75.6,117.9,343.4,117.9,520.7,117.9c52.5,0,96.2-17.1,130-50.9c27.2-27.2,44-61.5,54.5-93.7c10.4,32.2,27.3,66.5,54.5,93.7
				c33.7,33.8,77.4,50.9,130,50.9c177.2,0,445.1,0,520.7-117.9c25.5-39.8,26.9-89,4.4-146.6
				C2973.5,1392,2963.1,1387.7,2954.1,1391.7z"/>
			<path class="st4" d="M2415.9,1038.1c-41.1-44.5-94.7-87.1-148.3-85.8c-53.6-1.3-107.2,41.3-148.3,85.8
				c-34.3,37.1-7.7,97.2,42.8,97.2h105.4h105.4C2423.6,1135.3,2450.2,1075.1,2415.9,1038.1z"/>
		</g>
	</g>
	<g>
		<path class="st4" d="M2037.6,1226.8c-4,0-7.6,1.4-10.5,3.6c-36.2-16.8-137.4-60.3-245.3-75.9c-162.6-23.5-325.5,3.3-362.2,10
			c-4.2,0.8-6.9,4.9-6.1,9l0,0c0.8,4,4.8,6.7,8.8,5.9c35.7-6.6,196.8-33.1,357.3-9.9c105.9,15.3,205.4,58.1,240.9,74.5
			c0.1,9.3,7.7,16.9,17.1,16.9c9.5,0,17.1-7.7,17.1-17.1C2054.7,1234.5,2047,1226.8,2037.6,1226.8z"/>
		<path class="st4" d="M1969.1,1341c-3.7,0-7,1.1-9.8,3.1c-27.5-13.7-95.6-42.1-205.1-51.3c-116.9-9.9-268.9,20-304.2,27.4
			c-4.2,0.9-6.8,5-5.9,9.1c0.9,4,4.9,6.6,9,5.8c34.6-7.3,184.9-36.8,299.8-27.1c105.6,8.9,172.5,36.5,199.1,49.6c0,0.2,0,0.4,0,0.5
			c0,9.5,7.7,17.1,17.1,17.1s17.1-7.7,17.1-17.1C1986.2,1348.7,1978.5,1341,1969.1,1341z"/>
		<path class="st4" d="M2497.8,1226.8c4,0,7.6,1.4,10.5,3.6c36.2-16.8,137.4-60.3,245.3-75.9c162.6-23.5,325.5,3.3,362.2,10
			c4.2,0.8,6.9,4.9,6.1,9l0,0c-0.8,4-4.8,6.7-8.8,5.9c-35.7-6.6-196.8-33.1-357.3-9.9c-105.9,15.3-205.4,58.1-240.9,74.5
			c-0.1,9.3-7.7,16.9-17.1,16.9c-9.5,0-17.1-7.7-17.1-17.1C2480.7,1234.5,2488.3,1226.8,2497.8,1226.8z"/>
		<path class="st4" d="M2566.3,1341c3.7,0,7,1.1,9.8,3.1c27.5-13.7,95.6-42.1,205.1-51.3c116.9-9.9,268.9,20,304.2,27.4
			c4.2,0.9,6.8,5,5.9,9.1c-0.9,4-4.9,6.6-9,5.8c-34.6-7.3-184.9-36.8-299.8-27.1c-105.6,8.9-172.5,36.5-199.1,49.6
			c0,0.2,0,0.4,0,0.5c0,9.5-7.7,17.1-17.1,17.1c-9.5,0-17.1-7.7-17.1-17.1C2549.2,1348.7,2556.8,1341,2566.3,1341z"/>
	</g>
	<path class="st7" d="M8,3141.1h4519.4c0,0-324.4-608.9-915.6-734.5c-183.8-39-345.6,80.7-345.6,80.7s-98.2-177.7-410.7-177.3
		c-214.8,0.3-365.3,142.3-365.3,142.3s-182.3-149.7-394.1-142.4c-211.8,7.3-382.6,203.3-382.6,203.3s-68.5-88.3-296.6-133.2
		c-228.1-44.9-377.6,238.2-377.6,238.2s373.5-274.3-70.3-228.7C414.1,2446.6,8,3141.1,8,3141.1z"/>
	<g>
		<path class="st8" d="M3641.5,2477.9c-63-239.8-223.5-237.7-292.6-237.7s-252.2,48.8-326.2,237.7
			c-74.1,189,211.1,115.6,291.7,130.1C3450.5,2632.3,3684.3,2640.9,3641.5,2477.9z"/>
		<g>
			<path class="st5" d="M3637.2,2472c5.6,7,10.9,37,12.1,45.7c8.3,58.9,49.3,364.7-17.8,362.7c-73.7-2.2-160.2-281.1-135.8-322.6
				C3518.4,2519.3,3597.6,2422.3,3637.2,2472z"/>
			<path class="st5" d="M3490.4,2575.5c-0.8-22-7.9-43.6-21.4-61.5c-14.5-19.1-38-37.1-75.3-35.7c-77.8,3.1-70.7,109.7-67.4,176.5
				c3.3,66.9,29.7,257.8,79,255.8C3453.2,2908.8,3497.6,2782.4,3490.4,2575.5z"/>
			<path class="st5" d="M3324.9,2574.5c4.3-45.1-12.2-92.6-75.6-94.5c-63.4-1.9-93.6,26-97.5,163.4c-4.6,163.8,31,261.9,56.5,264.2
				C3237.2,2910.3,3295.2,2888.6,3324.9,2574.5z"/>
			<path class="st5" d="M3155.2,2546.6c-0.7-25.8-10-59.7-62-66.9c-40-5.6-57.4,5.7-70,21.7c-20,25.3-32,101.3-40,159.2
				c-10.6,76.7-14,237,28,237s98-124.8,114.1-179.1C3139.3,2670.5,3157.2,2617.2,3155.2,2546.6z"/>
		</g>
		<path class="st8" d="M893.9,2477.9c63-239.8,223.5-237.7,292.6-237.7c69.1,0,252.2,48.8,326.2,237.7
			c74.1,189-211.1,115.6-291.7,130.1C1084.9,2632.3,851,2640.9,893.9,2477.9z"/>
		<g>
			<path class="st5" d="M898.1,2472c-5.6,7-10.9,37-12.1,45.7c-8.3,58.9-49.3,364.7,17.8,362.7c73.7-2.2,160.2-281.1,135.8-322.6
				C1016.9,2519.3,937.7,2422.3,898.1,2472z"/>
			<path class="st5" d="M1045,2575.5c0.8-22,7.9-43.6,21.4-61.5c14.5-19.1,38-37.1,75.3-35.7c77.8,3.1,70.7,109.7,67.4,176.5
				c-3.3,66.9-29.7,257.8-79,255.8C1082.2,2908.8,1037.7,2782.4,1045,2575.5z"/>
			<path class="st5" d="M1210.5,2574.5c-4.3-45.1,12.2-92.6,75.6-94.5c63.4-1.9,93.6,26,97.5,163.4c4.6,163.8-31,261.9-56.5,264.2
				C1298.2,2910.3,1240.1,2888.6,1210.5,2574.5z"/>
			<path class="st5" d="M1380.2,2546.6c0.7-25.8,10-59.7,62-66.9c40-5.6,57.4,5.7,70,21.7c20,25.3,32,101.3,40,159.2
				c10.6,76.7,14,237-28,237s-98-124.8-114.1-179.1C1396,2670.5,1378.2,2617.2,1380.2,2546.6z"/>
		</g>
	</g>
</g>
</svg>
